<?xml version="1.0" encoding="utf-8"?>
<!-- Generated by Mocodo 4.3.2 -->
<svg width="676" height="458" viewBox="0 0 676 458" xmlns="http://www.w3.org/2000/svg">
<rect x="0" y="0" width="676" height="458" fill="#ffffff" stroke="none" stroke-width="0"/>

<!-- Association EXISTER -->
<g>
	<line x1="66" y1="203" x2="66" y2="68" stroke="#d6604d" stroke-width="2"/>
	<line x1="220" y1="68" x2="66" y2="68" stroke="#d6604d" stroke-width="2"/>
	<g>
		<path d="M80 43 a14 14 90 0 1 14 14 V68 h-56 V57 a14 14 90 0 1 14 -14" fill="#f4a582" stroke="#f4a582" stroke-width="0"/>
		<path d="M94 68 v11 a14 14 90 0 1 -14 14 H52 a14 14 90 0 1 -14 -14 V68 H56" fill="#fddbc7" stroke="#fddbc7" stroke-width="0"/>
		<rect x="38" y="43" width="56" height="50" fill="none" rx="14" stroke="#d6604d" stroke-width="2"/>
		<line x1="38" y1="68" x2="94" y2="68" stroke="#d6604d" stroke-width="1"/>
		<text x="45" y="60.75" fill="#000000" font-family="Verdana" font-size="12">exister</text>
	</g>
	<text x="40" y="119" fill="#4d4d4d" font-family="Verdana" font-size="12">1,1</text>
	<text x="136" y="85" fill="#4d4d4d" font-family="Verdana" font-size="12">0,N</text>
</g>

<!-- Association POSSEDER -->
<g>
	<line x1="66" y1="203" x2="362" y2="68" stroke="#d6604d" stroke-width="2"/>
	<line x1="495" y1="68" x2="362" y2="68" stroke="#d6604d" stroke-width="2"/>
	<g>
		<path d="M383 43 a14 14 90 0 1 14 14 V68 h-70 V57 a14 14 90 0 1 14 -14" fill="#f4a582" stroke="#f4a582" stroke-width="0"/>
		<path d="M397 68 v11 a14 14 90 0 1 -14 14 H341 a14 14 90 0 1 -14 -14 V68 H70" fill="#fddbc7" stroke="#fddbc7" stroke-width="0"/>
		<rect x="327" y="43" width="70" height="50" fill="none" rx="14" stroke="#d6604d" stroke-width="2"/>
		<line x1="327" y1="68" x2="397" y2="68" stroke="#d6604d" stroke-width="1"/>
		<text x="335" y="60.75" fill="#000000" font-family="Verdana" font-size="12">posséder</text>
	</g>
	<text x="128" y="190.43" fill="#4d4d4d" font-family="Verdana" font-size="12">0,N</text>
	<text x="419" y="85" fill="#4d4d4d" font-family="Verdana" font-size="12">0,N</text>
</g>

<!-- Association CONTENIR -->
<g>
	<line x1="616" y1="203" x2="616" y2="68" stroke="#d6604d" stroke-width="2"/>
	<line x1="495" y1="68" x2="616" y2="68" stroke="#d6604d" stroke-width="2"/>
	<g>
		<path d="M634 43 a14 14 90 0 1 14 14 V68 h-64 V57 a14 14 90 0 1 14 -14" fill="#f4a582" stroke="#f4a582" stroke-width="0"/>
		<path d="M648 68 v11 a14 14 90 0 1 -14 14 H598 a14 14 90 0 1 -14 -14 V68 H64" fill="#fddbc7" stroke="#fddbc7" stroke-width="0"/>
		<rect x="584" y="43" width="64" height="50" fill="none" rx="14" stroke="#d6604d" stroke-width="2"/>
		<line x1="584" y1="68" x2="648" y2="68" stroke="#d6604d" stroke-width="1"/>
		<text x="591" y="60.75" fill="#000000" font-family="Verdana" font-size="12">contenir</text>
	</g>
	<text x="621" y="153" fill="#4d4d4d" font-family="Verdana" font-size="12">0,N</text>
	<text x="549" y="60" fill="#4d4d4d" font-family="Verdana" font-size="12">1,1</text>
</g>

<!-- Association MAITRISER -->
<g>
	<line x1="66" y1="203" x2="220" y2="203" stroke="#d6604d" stroke-width="2"/>
	<line x1="362" y1="203" x2="220" y2="203" stroke="#d6604d" stroke-width="2"/>
	<g>
		<path d="M241 178 a14 14 90 0 1 14 14 V203 h-70 V192 a14 14 90 0 1 14 -14" fill="#f4a582" stroke="#f4a582" stroke-width="0"/>
		<path d="M255 203 v11 a14 14 90 0 1 -14 14 H199 a14 14 90 0 1 -14 -14 V203 H70" fill="#fddbc7" stroke="#fddbc7" stroke-width="0"/>
		<rect x="185" y="178" width="70" height="50" fill="none" rx="14" stroke="#d6604d" stroke-width="2"/>
		<line x1="185" y1="203" x2="255" y2="203" stroke="#d6604d" stroke-width="1"/>
		<text x="193" y="195.75" fill="#000000" font-family="Verdana" font-size="12">maitriser</text>
	</g>
	<text x="128" y="220" fill="#4d4d4d" font-family="Verdana" font-size="12">0,N</text>
	<text x="272" y="220" fill="#4d4d4d" font-family="Verdana" font-size="12">0,N</text>
</g>

<!-- Association NECESSITER -->
<g>
	<line x1="495" y1="364" x2="495" y2="203" stroke="#d6604d" stroke-width="2"/>
	<line x1="362" y1="203" x2="495" y2="203" stroke="#d6604d" stroke-width="2"/>
	<g>
		<path d="M519 178 a14 14 90 0 1 14 14 V203 h-76 V192 a14 14 90 0 1 14 -14" fill="#f4a582" stroke="#f4a582" stroke-width="0"/>
		<path d="M533 203 v11 a14 14 90 0 1 -14 14 H471 a14 14 90 0 1 -14 -14 V203 H76" fill="#fddbc7" stroke="#fddbc7" stroke-width="0"/>
		<rect x="457" y="178" width="76" height="50" fill="none" rx="14" stroke="#d6604d" stroke-width="2"/>
		<line x1="457" y1="203" x2="533" y2="203" stroke="#d6604d" stroke-width="1"/>
		<text x="464" y="195.75" fill="#000000" font-family="Verdana" font-size="12">nécessiter</text>
	</g>
	<text x="500" y="271" fill="#4d4d4d" font-family="Verdana" font-size="12">0,N</text>
	<text x="430" y="220" fill="#4d4d4d" font-family="Verdana" font-size="12">0,N</text>
</g>

<!-- Association DEBLOQUER -->
<g>
	<line x1="66" y1="203" x2="66" y2="364" stroke="#d6604d" stroke-width="2"/>
	<line x1="220" y1="364" x2="66" y2="364" stroke="#d6604d" stroke-width="2"/>
	<g>
		<path d="M90 339 a14 14 90 0 1 14 14 V364 h-76 V353 a14 14 90 0 1 14 -14" fill="#f4a582" stroke="#f4a582" stroke-width="0"/>
		<path d="M104 364 v11 a14 14 90 0 1 -14 14 H42 a14 14 90 0 1 -14 -14 V364 H76" fill="#fddbc7" stroke="#fddbc7" stroke-width="0"/>
		<rect x="28" y="339" width="76" height="50" fill="none" rx="14" stroke="#d6604d" stroke-width="2"/>
		<line x1="28" y1="364" x2="104" y2="364" stroke="#d6604d" stroke-width="1"/>
		<text x="36" y="356.75" fill="#000000" font-family="Verdana" font-size="12">débloquer</text>
	</g>
	<text x="71" y="296" fill="#4d4d4d" font-family="Verdana" font-size="12">0,N</text>
	<text x="109" y="381" fill="#4d4d4d" font-family="Verdana" font-size="12">0,N</text>
</g>

<!-- Association EXIGER -->
<g>
	<line x1="495" y1="364" x2="362" y2="364" stroke="#d6604d" stroke-width="2"/>
	<line x1="220" y1="364" x2="362" y2="364" stroke="#d6604d" stroke-width="2"/>
	<g>
		<path d="M374 339 a14 14 90 0 1 14 14 V364 h-52 V353 a14 14 90 0 1 14 -14" fill="#f4a582" stroke="#f4a582" stroke-width="0"/>
		<path d="M388 364 v11 a14 14 90 0 1 -14 14 H350 a14 14 90 0 1 -14 -14 V364 H52" fill="#fddbc7" stroke="#fddbc7" stroke-width="0"/>
		<rect x="336" y="339" width="52" height="50" fill="none" rx="14" stroke="#d6604d" stroke-width="2"/>
		<line x1="336" y1="364" x2="388" y2="364" stroke="#d6604d" stroke-width="1"/>
		<text x="343" y="356.75" fill="#000000" font-family="Verdana" font-size="12">exiger</text>
	</g>
	<text x="427" y="381" fill="#4d4d4d" font-family="Verdana" font-size="12">0,N</text>
	<text x="309" y="381" fill="#4d4d4d" font-family="Verdana" font-size="12">0,N</text>
</g>

<!-- Association REQUERIR -->
<g>
	<line x1="495" y1="364" x2="616" y2="364" stroke="#d6604d" stroke-width="2"/>
	<line x1="495" y1="68" x2="616" y2="364" stroke="#d6604d" stroke-width="2"/>
	<g>
		<path d="M634 339 a14 14 90 0 1 14 14 V364 h-64 V353 a14 14 90 0 1 14 -14" fill="#f4a582" stroke="#f4a582" stroke-width="0"/>
		<path d="M648 364 v11 a14 14 90 0 1 -14 14 H598 a14 14 90 0 1 -14 -14 V364 H64" fill="#fddbc7" stroke="#fddbc7" stroke-width="0"/>
		<rect x="584" y="339" width="64" height="50" fill="none" rx="14" stroke="#d6604d" stroke-width="2"/>
		<line x1="584" y1="364" x2="648" y2="364" stroke="#d6604d" stroke-width="1"/>
		<text x="592" y="356.75" fill="#000000" font-family="Verdana" font-size="12">requérir</text>
	</g>
	<text x="541" y="381" fill="#4d4d4d" font-family="Verdana" font-size="12">0,N</text>
	<text x="495.32" y="144" fill="#4d4d4d" font-family="Verdana" font-size="12">0,N</text>
</g>

<!-- Entity SAUVEGARDE -->
<g>
	<g>
		<rect x="163" y="34" width="114" height="25" fill="#bababa" stroke="none" stroke-width="0" opacity="1"/>
		<rect x="163" y="59" width="114" height="43" fill="#e0e0e0" stroke="none" stroke-width="0" opacity="1"/>
		<rect x="163" y="34" width="114" height="68" fill="none" stroke="#878787" stroke-width="2" opacity="1"/>
		<line x1="163" y1="59" x2="277" y2="59" stroke="#878787" stroke-width="1"/>
	</g>
	<text x="185" y="51.75" fill="#000000" font-family="Verdana" font-size="12">sauvegarde</text>
	<text x="168" y="76.8" fill="#000000" font-family="Verdana" font-size="12">code sauvegarde</text>
	<line x1="168" y1="79" x2="271" y2="79" stroke="#000000" stroke-width="1"/>
	<text x="168" y="93.8" fill="#000000" font-family="Verdana" font-size="12">slot</text>
</g>

<!-- Entity OBJET -->
<g>
	<g>
		<rect x="446" y="9" width="98" height="25" fill="#bababa" stroke="none" stroke-width="0" opacity="1"/>
		<rect x="446" y="34" width="98" height="93" fill="#e0e0e0" stroke="none" stroke-width="0" opacity="1"/>
		<rect x="446" y="9" width="98" height="118" fill="none" stroke="#878787" stroke-width="2" opacity="1"/>
		<line x1="446" y1="34" x2="544" y2="34" stroke="#878787" stroke-width="1"/>
	</g>
	<text x="479" y="26.75" fill="#000000" font-family="Verdana" font-size="12">objet</text>
	<text x="451" y="51.8" fill="#000000" font-family="Verdana" font-size="12">code objet</text>
	<line x1="451" y1="54" x2="515" y2="54" stroke="#000000" stroke-width="1"/>
	<text x="451" y="68.8" fill="#000000" font-family="Verdana" font-size="12">code</text>
	<text x="451" y="85.8" fill="#000000" font-family="Verdana" font-size="12">nom de l’objet</text>
	<text x="451" y="102.8" fill="#000000" font-family="Verdana" font-size="12">description</text>
	<text x="451" y="119.8" fill="#000000" font-family="Verdana" font-size="12">quantité</text>
</g>

<!-- Entity PERSONNAGE -->
<g>
	<g>
		<rect x="9" y="127" width="114" height="25" fill="#bababa" stroke="none" stroke-width="0" opacity="1"/>
		<rect x="9" y="152" width="114" height="127" fill="#e0e0e0" stroke="none" stroke-width="0" opacity="1"/>
		<rect x="9" y="127" width="114" height="152" fill="none" stroke="#878787" stroke-width="2" opacity="1"/>
		<line x1="9" y1="152" x2="123" y2="152" stroke="#878787" stroke-width="1"/>
	</g>
	<text x="31" y="144.75" fill="#000000" font-family="Verdana" font-size="12">personnage</text>
	<text x="14" y="169.8" fill="#000000" font-family="Verdana" font-size="12">code personnage</text>
	<line x1="14" y1="172" x2="118" y2="172" stroke="#000000" stroke-width="1"/>
	<text x="14" y="186.8" fill="#000000" font-family="Verdana" font-size="12">nom</text>
	<text x="14" y="203.8" fill="#000000" font-family="Verdana" font-size="12">points de vie</text>
	<text x="14" y="220.8" fill="#000000" font-family="Verdana" font-size="12">points de mana</text>
	<text x="14" y="237.8" fill="#000000" font-family="Verdana" font-size="12">age</text>
	<text x="14" y="254.8" fill="#000000" font-family="Verdana" font-size="12">position x</text>
	<text x="14" y="271.8" fill="#000000" font-family="Verdana" font-size="12">position y</text>
</g>

<!-- Entity CAPACITE -->
<g>
	<g>
		<rect x="299" y="152" width="126" height="25" fill="#bababa" stroke="none" stroke-width="0" opacity="1"/>
		<rect x="299" y="177" width="126" height="77" fill="#e0e0e0" stroke="none" stroke-width="0" opacity="1"/>
		<rect x="299" y="152" width="126" height="102" fill="none" stroke="#878787" stroke-width="2" opacity="1"/>
		<line x1="299" y1="177" x2="425" y2="177" stroke="#878787" stroke-width="1"/>
	</g>
	<text x="337" y="169.75" fill="#000000" font-family="Verdana" font-size="12">capacité</text>
	<text x="304" y="194.8" fill="#000000" font-family="Verdana" font-size="12">code capacité</text>
	<line x1="304" y1="197" x2="387" y2="197" stroke="#000000" stroke-width="1"/>
	<text x="304" y="211.8" fill="#000000" font-family="Verdana" font-size="12">code</text>
	<text x="304" y="228.8" fill="#000000" font-family="Verdana" font-size="12">nom de la capacité</text>
	<text x="304" y="245.8" fill="#000000" font-family="Verdana" font-size="12">description</text>
</g>

<!-- Entity FAMILLE_D_OBJET -->
<g>
	<g>
		<rect x="565" y="161" width="102" height="25" fill="#bababa" stroke="none" stroke-width="0" opacity="1"/>
		<rect x="565" y="186" width="102" height="59" fill="#e0e0e0" stroke="none" stroke-width="0" opacity="1"/>
		<rect x="565" y="161" width="102" height="84" fill="none" stroke="#878787" stroke-width="2" opacity="1"/>
		<line x1="565" y1="186" x2="667" y2="186" stroke="#878787" stroke-width="1"/>
	</g>
	<text x="573" y="178.75" fill="#000000" font-family="Verdana" font-size="12">famille d’objet</text>
	<text x="570" y="203.8" fill="#000000" font-family="Verdana" font-size="12">code de famille</text>
	<line x1="570" y1="206" x2="662" y2="206" stroke="#000000" stroke-width="1"/>
	<text x="570" y="220.8" fill="#000000" font-family="Verdana" font-size="12">nom</text>
	<text x="570" y="237.8" fill="#000000" font-family="Verdana" font-size="12">age d’accès</text>
</g>

<!-- Entity POINT_DE_PROGRESSION -->
<g>
	<g>
		<rect x="136" y="330" width="168" height="25" fill="#bababa" stroke="none" stroke-width="0" opacity="1"/>
		<rect x="136" y="355" width="168" height="43" fill="#e0e0e0" stroke="none" stroke-width="0" opacity="1"/>
		<rect x="136" y="330" width="168" height="68" fill="none" stroke="#878787" stroke-width="2" opacity="1"/>
		<line x1="136" y1="355" x2="304" y2="355" stroke="#878787" stroke-width="1"/>
	</g>
	<text x="158" y="347.75" fill="#000000" font-family="Verdana" font-size="12">point de progression</text>
	<text x="141" y="372.8" fill="#000000" font-family="Verdana" font-size="12">code point de progression</text>
	<line x1="141" y1="375" x2="298" y2="375" stroke="#000000" stroke-width="1"/>
	<text x="141" y="389.8" fill="#000000" font-family="Verdana" font-size="12">code</text>
</g>

<!-- Entity ZONE -->
<g>
	<g>
		<rect x="454" y="279" width="82" height="25" fill="#bababa" stroke="none" stroke-width="0" opacity="1"/>
		<rect x="454" y="304" width="82" height="145" fill="#e0e0e0" stroke="none" stroke-width="0" opacity="1"/>
		<rect x="454" y="279" width="82" height="170" fill="none" stroke="#878787" stroke-width="2" opacity="1"/>
		<line x1="454" y1="304" x2="536" y2="304" stroke="#878787" stroke-width="1"/>
	</g>
	<text x="481" y="296.75" fill="#000000" font-family="Verdana" font-size="12">zone</text>
	<text x="459" y="321.8" fill="#000000" font-family="Verdana" font-size="12">code zone</text>
	<line x1="459" y1="324" x2="521" y2="324" stroke="#000000" stroke-width="1"/>
	<text x="459" y="338.8" fill="#000000" font-family="Verdana" font-size="12">code</text>
	<text x="459" y="355.8" fill="#000000" font-family="Verdana" font-size="12">nom</text>
	<text x="459" y="372.8" fill="#000000" font-family="Verdana" font-size="12">description</text>
	<text x="459" y="389.8" fill="#000000" font-family="Verdana" font-size="12">image</text>
	<text x="459" y="406.8" fill="#000000" font-family="Verdana" font-size="12">musique</text>
	<text x="459" y="423.8" fill="#000000" font-family="Verdana" font-size="12">timer actif</text>
	<text x="459" y="440.8" fill="#000000" font-family="Verdana" font-size="12">age d’accès</text>
</g>
</svg>